<svg xmlns="http://www.w3.org/2000/svg" viewBox="0 0 180 40" fill="none">
  <!-- Google logo with official brand colors -->
  <g transform="translate(6, 6)">
    <!-- G -->
    <path d="M14.49 13.24c0-.82-.07-1.6-.21-2.36H7.4v4.46h3.97c-.17.92-.69 1.7-1.47 2.22v1.85h2.38c1.39-1.28 2.2-3.17 2.2-6.17z" fill="#4285F4" transform="scale(1.8)"/>
    <path d="M7.4 18c1.99 0 3.66-.66 4.88-1.79l-2.38-1.85c-.66.44-1.5.7-2.5.7-1.92 0-3.55-1.3-4.13-3.04H.82v1.91A7.38 7.38 0 0 0 7.4 18z" fill="#34A853" transform="scale(1.8)"/>
    <path d="M3.27 12.02a4.44 4.44 0 0 1 0-2.84V7.27H.82A7.38 7.38 0 0 0 0 10.6c0 1.19.28 2.31.82 3.33l2.45-1.91z" fill="#FBBC05" transform="scale(1.8)"/>
    <path d="M7.4 3.16c1.08 0 2.05.37 2.82 1.1l2.11-2.11A7.3 7.3 0 0 0 7.4 0 7.38 7.38 0 0 0 .82 4.07l2.45 1.91C3.85 4.46 5.48 3.16 7.4 3.16z" fill="#EA4335" transform="scale(1.8)"/>
  </g>
  <text x="42" y="34" font-family="system-ui, -apple-system, sans-serif" font-size="9" font-weight="500" fill="#4285F4" letter-spacing="0.5">PARTNER</text>
</svg>