<svg xmlns="http://www.w3.org/2000/svg" viewBox="0 0 200 52" fill="none">
  <!-- Google G icon -->
  <g transform="translate(0, 4)">
    <path d="M22.5 22.1c0-1.5-.1-3-.4-4.4H11.5v8.3h6.2c-.3 1.7-1.1 3.1-2.4 4.1v3.4h3.9c2.3-2.1 3.3-5.3 3.3-11.4z" fill="#4285F4"/>
    <path d="M11.5 34c2.7 0 5-.9 6.7-2.4l-3.9-3c-1 .7-2.2 1.1-2.8 1.1-3.2 0-5.9-2.2-6.9-5H.6v3.1A11.5 11.5 0 0 0 11.5 34z" fill="#34A853"/>
    <path d="M4.6 24.7a7 7 0 0 1 0-4.4v-3.1H.6A11.5 11.5 0 0 0 0 22.5c0 1.9.4 3.6 1.2 5.2l3.4-3z" fill="#FBBC04"/>
    <path d="M11.5 11.5c1.7 0 3.2.6 4.4 1.7l3.3-3.3A11.4 11.4 0 0 0 11.5 7 11.5 11.5 0 0 0 .6 13.3l3.4 3C5.2 13.8 8.1 11.5 11.5 11.5z" fill="#EA4335"/>
  </g>
  <!-- "Partner" text -->
  <text x="38" y="22" font-family="-apple-system, sans-serif" font-size="13" font-weight="700" fill="#1a1a1a" letter-spacing="0">Google</text>
  <text x="38" y="38" font-family="-apple-system, sans-serif" font-size="11" font-weight="500" fill="#555" letter-spacing="0.5">Partner</text>
</svg>
