<svg xmlns="http://www.w3.org/2000/svg" viewBox="0 0 180 40" fill="none">
  <!-- OpenAI logomark - hexagonal knot -->
  <path d="M20.48 3.38a5.12 5.12 0 0 1 7.68 0l.14.16a5.12 5.12 0 0 1 5.44 2.56l.08.14a5.12 5.12 0 0 1-2.24 7.12l.02.18a5.12 5.12 0 0 1-5.3 4.98l-.16.02a5.12 5.12 0 0 1-7.68 0l-.14-.16a5.12 5.12 0 0 1-5.44-2.56l-.08-.14a5.12 5.12 0 0 1 2.24-7.12l-.02-.18A5.12 5.12 0 0 1 20.34 3.4l.14-.02z" fill="none" stroke="#191919" stroke-width="1.5" transform="translate(4, 11) scale(0.9)"/>
  <text x="42" y="21" font-family="system-ui, -apple-system, sans-serif" font-size="15" font-weight="600" fill="#191919">OpenAI</text>
  <text x="42" y="34" font-family="system-ui, -apple-system, sans-serif" font-size="9" font-weight="500" fill="#10A37F" letter-spacing="0.5">PARTNER</text>
</svg>